# xmcd
#
# Track frame offsets:
#	150
#	21334
#	44550
#	63274
#	81014
#	104547
#	128523
#	139549
#	159885
#	172468
#	173157
#
# Disc length: 2347 seconds
#
# Revision: 11
# Processed by: cddbd v1.5.2PL0 Copyright (c) Steve Scherf et al.
# Submitted via: Jack! The Knife 20 Magnifico
#
DISCID=8f09290b
DTITLE=Nuclear Assault - Something Wicked
DYEAR=1993
DGENRE=Metal
TTITLE0=Something Wicked
TTITLE1=Another Violent End
TTITLE2=Behind Glass Walls
TTITLE3=Chaos
TTITLE4=The Forge
TTITLE5=No Time
TTITLE6=To Serve Man
TTITLE7=Madness Descends
TTITLE8=Poetic Justice
TTITLE9=Art
TTITLE10=The Other End
EXTD=Nuclear Assault
EXTT0=
EXTT1=
EXTT2=
EXTT3=
EXTT4=
EXTT5=
EXTT6=
EXTT7=
EXTT8=
EXTT9=
EXTT10=
PLAYORDER=
